<mxfile host="app.diagrams.net" modified="2024-02-18T17:57:10.751Z" agent="Mozilla/5.0 (Macintosh; Intel Mac OS X 10_15_7) AppleWebKit/537.36 (KHTML, like Gecko) Chrome/121.0.0.0 Safari/537.36" etag="a7_3faoS655lC1vRn2mX" version="23.1.5" type="device">
  <diagram name="Page-1" id="MK8gdkXIyeCLLmjFgkcw">
    <mxGraphModel dx="2840" dy="654" grid="1" gridSize="10" guides="1" tooltips="1" connect="1" arrows="1" fold="1" page="1" pageScale="1" pageWidth="850" pageHeight="1100" math="0" shadow="0">
      <root>
        <mxCell id="0" />
        <mxCell id="1" parent="0" />
        <mxCell id="skae8Cms1SVxLaRQlldV-4" value="" style="shape=image;verticalLabelPosition=bottom;labelBackgroundColor=default;verticalAlign=top;aspect=fixed;imageAspect=0;image=data:image/png,iVBORw0KGgoAAAANSUhEUgAAAvsAAAEACAYAAAAtPLkJAAAAOXRFWHRTb2Z0d2FyZQBNYXRwbG90bGliIHZlcnNpb24zLjcuMiwgaHR0cHM6Ly9tYXRwbG90bGliLm9yZy8pXeV/AAAACXBIWXMAAA7EAAAOxAGVKw4bAAA2JElEQVR4nO3deVyU5f7/8fegqDCDEuDGomYEaVrmklYulLgvaVpK6gn36riX1kkr46jkUlpuLaYpgfvBc46cjilKRua3kIrSg+YWUZq4ECKCLPfvDx/OzwkQUBS9fT0fj/uPua/rvu7PPY/LmTf3XDNaDMMwBAAAAMB0nCq6AAAAAADXB2EfAAAAMCnCPgAAAGBShH0AAADApAj7AAAAgEkR9gEAAACTIuwDAAAAJkXYBwAAAEyKsA8AAACYFGEfAFBmBQUFateunby8vDRt2rSKLgcAUIzKFV0AAODW4+TkpKioKMXGxurgwYMVXQ4AoBjc2Yep7dmzR71795aHh4dcXV3VqFEjzZo1S7m5uZKkuLg4WSwW2Ww22Ww21ahRQ23atNG2bdscxsnKytJrr72mxo0by9XVVbVr19YjjzyiDz/8sCIuC7gp+Pn5VXQJQLHy8vL00EMPKTQ01GF/XFycXF1dlZiYqNDQUA0ePLjQsdOnT1fbtm3tj0NDQ+Xs7Gx/r7i0zZkz53pfBnDNCPswre3bt6tt27Zq3Lix9u3bp/T0dL3//vv6+OOP1adPHxUUFNj7pqenKzMzU6dOndJTTz2lxx9/XKdPn5YknTt3Tu3atVNMTIw++OADnT59Wr/99ptmz56tDRs2VNTlAQCuoHLlyoqKilJ0dLRWr14tSTp16pQGDx6sGTNmqHnz5mUab8CAAcrMzHTYpkyZcj1KB8oVy3hgWs8995z69eunN998076vffv2+uc//6n77rtP69atU506dRyOqVy5soYPH64XXnhBhw4dkoeHh9555x0dOXJEBw4ckJeXl71v27ZttWXLlht2PUBJsrKylJ6eLm9v73IZr02bNoX21a1bV9HR0eUyPnA1zp8/rzNnzpRqnt95551asmSJnn32WbVu3VoTJkxQkyZNNHHixBtQKXBzIOzDlA4cOKADBw5o8eLFhdoaNWqkBx98UJs3b9aIESMc2nJycvTBBx/Iy8tLjRo1kiTFxMSoW7duDkEfuBk5OTnp448/1rlz5/Tcc8/J19f3iv39/f116NAhubq6ymKxyDAMZWVlyWq1Kjk5Wbt3775BlQOlZ7FYyjTPBw0apC1btqhNmzayWCxKSkqSxWK5QdUCFY+wD1NKS0uTJPn4+BTZ7uvrqxMnTtgfXwrymZmZqlKlipYtWyabzSZJOnHihMPaTeBmVa1aNb3yyis6c+aMli5dWmIY2rBhg5o3b67jx4/Lzc1NW7duVZ8+fZSRkSEnp5JXeYaEhCgpKUlZWVnavXu3Pv30Uzk7O5f3ZQEOyjrPJSk4OFgREREaMWKEateu7dC2bt06bd682WFfdna2WrZsWWK/jRs3qmPHjtd4RcD1RdiHKdWsWVOS9Ouvv9rv0F8uNTVVd955p/3xyZMnVblyZeXn52v79u3q06ePPDw81LVrV9WqVUupqallrmHhwoU6fvz41V8EcI3Onz+v4OBg9e/fXzNmzCjUnpiYqICAALm5uUmSEhIS1KxZs1IFfUn2ddAliYiIUHJycukLB8rg0jzv16+fZs6cWaj9559/1rhx4/Tyyy9r/vz5GjRokIKCguztTz31lD755BOHY6ZPn17ohxqK6gfcCgj7MKWAgAD5+/tr1apVCg4Odmjbv3+/vv76a40ZM6bQcZUqVVKnTp3UqFEjxcTEqGvXrurRo4feeustnTp1Sp6enqWuYezYsdd8HcDV2rVrl1avXq1XX31VAwcOLLJPYmKiWrRoYX+ckJBQ5i8tlsaQIUPKfUxAujjP16xZU+w8z8/P19NPP62+ffsqPDxcNWrU0JAhQ5SUlKQ77rijAioGbjx+jQemtWTJEq1bt06vvPKKfv/9d+Xm5io+Pl6PP/64OnbsqKeeeqrQMYZhaMeOHdq7d6+aNWsmSRo/frwaNGigbt26adeuXcrOzlZ+fr52796tbt263eCrAq5s165dGjt2rI4cOaIFCxZo0KBBqlSpUpF99+zZUyjsX/4YuFnt2rVL48aN05EjR+x364ua52+88YbS0tK0cOFCSdKUKVMUEBCgkSNH3uiSgQrDnX2YVqdOnfTFF18oLCxM99xzj7Kzs1WvXj0NGTJEU6ZMcXhjcHd3l3Txi1/e3t6aPn26hg8fLkmyWq3auXOnZs+ereHDh+vnn3+Wm5ub7r77bg0bNqwiLg0o0pkzZ3T06FEtWLCg2IB/SX5+vpKSkuy/VnX27FmlpKSoSZMmN6JU4Kpdmufz58+/4jzfuXOn5s6dqy+++ML+HSwnJyetWrVK999/v5YtW1am865du1abNm1y2BcaGqpFixaV+RqAG8liGIZR0UUAAG6svXv3qmnTpkpPT1f16tWVlZWlwMBA+fn5KTY2Vi4uLhVdIgCgHBD2AQAAAJNizT4AAABgUoR9AAAAwKQI+wAAAIBJEfYBAAAAkyLsAwAAACZF2AcAAABMirAPAAAAmBRhHwAAADApwj4AAABgUoR9AAAAwKQI+wAAAIBJEfYBAAAAkyLsAwAAACZF2AcAAABMirAPAAAAmBRhHwAAADApwj4AAABgUoR9AAAAwKQI+wAAAIBJEfYBAAAAkyLsAwAAACZF2AcAAABMirAPAAAAmBRhHwAAADApwj4AoMwKCgrUrl07eXl5adq0aRVdDgCgGJUrugAAwK3HyclJUVFRio2N1cGDByu6HABAMbizj1tOUFCQqlSpIpvNpurVq6tJkyb66KOPtHDhQtWpU0eGYdj7bt++XRaLRWFhYQ5jPPHEExo0aJD98cmTJzVhwgT5+/vLarXK29tbwcHB+sc//iFJOnr0qCwWS7GhJjc3VzNnzlSjRo3k6uoqDw8PPf744/r222+vwzMA3Bz8/PwqugSgRD/88IOefvppeXt7y2q1ytfXVx07dtSKFSskSR9//LGcnJxks9lks9nk4+OjoUOH6vTp0/Yx4uLiZLFY7H0ubffff3+h873++uuyWCx67733HPbn5eXpoYceUmhoqMP+uLg4ubq6KjExsfwvHhBhH7eoKVOmKDMzU2fOnNHLL7+sESNGyNnZWb///rt++OEHe7+tW7eqSZMm2rZtm31ffn6+duzYoc6dO0uSjh8/rpYtW2rv3r1av3690tPTdfToUb344otas2ZNibXk5+erV69eWrlypd577z2lp6dr3759atSokR5++GF9/vnn5f8EAABKtGPHDj344IOqWbOm4uPjdfbsWR06dEhTp07Vpk2b7P28vb2VmZmpzMxMxcfH6//+7//0wgsvFBovPT3d3i8zM1Pff/+9Q3teXp4+/PBDeXp6aunSpQ5tlStXVlRUlKKjo7V69WpJ0qlTpzR48GDNmDFDzZs3L/8nABDLeHCLq1SpkgYPHqwJEybo3LlzqlevnrZu3ar77rtP0sWwP336dP3lL39RZmambDabvvnmG6Wnpys4OFiS9Nprr8nZ2VmbN29W1apV7WN37dpVXbt2LbGGtWvXKjY2Vj/88IPuueceSVKdOnX05ptv6pdfftHo0aOVnJx8Ha4ecHTu3DmdOHFCd955Z7mM16ZNm0L76tatq+jo6HIZH7gaZZnno0eP1oABA/TOO+/Y91WtWlWPPfaYHnvssSKPufPOO9W9e3f997//LXNt0dHRSktLU0xMjLp06aL4+Hi1bdvWYewlS5bo2WefVevWrTVhwgQ1adJEEydOLPO5gNIi7OOWlpeXp9WrV+v06dNq1aqVOnXqpK1bt+qFF17QqVOntG/fPnXv3l0PPPCA4uLi1LNnT23dulWNGzeWj4+PJCkmJkahoaEOQb8sNm/erNatW9uD/uVCQ0MVFRWlgwcPyt/f/5quFSiJs7OzoqOjdfz4cY0aNarEOefv769Dhw7J1dVVFotFhmEoKytLVqtVycnJ2r179w2qHCi90s7zAwcO6KefftKSJUvKNP5PP/2kf//73/abRmWxZMkS9ezZU507d1br1q21ZMkSh7AvSYMGDdKWLVvUpk0bWSwWJSUlyWKxlPlcQGmxjAe3pHnz5snd3V116tTRggULtGLFCrVv316dO3fWzp07lZOTo9jYWLVp00YuLi4KDg7W1q1bJV28239pCY8knThxQr6+vlddS1pamv0Phz+7NO6JEyeuenygtKpUqaJJkybptdde07/+9S9NmTLlil+e3bBhgywWi44fP67MzExt2rRJrq6uysjIKNW/iZCQEM2dO1eRkZEKDg5Wbm5ueV4OUKTSzvO0tDRJcnh9/uGHH+Tu7i53d3dVq1ZNO3fulCT99ttvcnd3l6urqwICAuTn56fFixcXGtPLy8t+vLu7u4YPH25v+9///qe4uDiNGjVKkjRq1Cht3LjRXsflgoODlZaWpt69e6t27drX9oQAJeDOPm5JL774ombMmFFof8eOHZWTk6Mvv/xSW7dutS/V6dixo0aPHq3MzEzt3r1bL7/8sv2YWrVqKTU19aprqVmzplJSUopsuzRurVq1imz/9ddfy3zXCSgtwzDUo0cPPfHEEwoPDy/UnpiYqICAALm5uUmSEhIS1KxZMzk5le4+0KV1xyWJiIhgKRuum+Lmec2aNSVdfB1u1KiRJKlp06ZKT09XXl6enJ2dVVBQIOnimv3U1FQVFBRo8+bNGjFihI4dO1botfvkyZOqXLno6LR06VLVq1dPXbp0kSQNGDBAEydO1LJly/S3v/3N3u/nn3/WuHHj9PLLL2v+/PkaNGiQgoKCyu35AP6MsA9T8fT0VPPmzbV161Zt3bpV69atk3Rx7fEvv/yiTz75RBaLRR06dLAf06NHD61fv16vv/66qlSpUuZz9ujRQ0OHDtWBAwcUEBDg0LZq1SoFBAQU+zGzj4+PZs6cWeZzAldiGIa2b9+u6Ohovfnmm3r88ceL7JeYmKgWLVrYHyckJFyXLwkOGTKk3McESprnl157IyMj1alTp1KN6eTkpN69e2vkyJEaNmyYEhISSrXE5ty5c1q1apWys7Pl7e1t33/+/Hm9//77eumll+Tk5KT8/Hw9/fTT6tu3r8LDw1WjRg0NGTJESUlJuuOOO8r2BAClxDIemE7nzp21cuVK/fHHH2rZsqWki2s827Vrp7CwMD388MOyWq32/mFhYbpw4YJ69+6t77//Xrm5ucrNzdW2bds0cOBAh7EvXLig7Oxs+5aTk6OBAweqQ4cO6t27t7744gvl5ubqxIkTmjp1qjZs2FDoFxmA68UwDMXGxmrs2LHKyMjQu+++q759+xZ7p37Pnj2Fwv7lj4GbUVnm+Xvvvac1a9ZowoQJOnLkiAoKCpSbm1vir6RNnjxZhw8fVlRUVKlqioyM1Pnz57Vnzx5999139m3nzp1KSUlRTEyMJOmNN95QWlqaFi5cKOniL8sFBARo5MiRZXwWgDIwgFtMhw4djKlTpxbbHhcXZ0gy+vbt67D/rbfeMiQZM2fOLHTMiRMnjPHjxxt33nmn4eLiYtSpU8cIDg42oqOjDcMwjCNHjhiSCm0+Pj6GYRhGdna2ERYWZgQEBBjVqlUz3N3djZ49exrffPNN+V04UIIzZ84Y0dHRRn5+fol98/LyDFdXVyMuLs4wDMPIyMgwJDFncdMryzw3DMP47rvvjAEDBhh16tQxXFxcDB8fH+PRRx81IiIijAsXLhgrVqywv5ZfLiwszGjQoIGRk5Nj7Nixw5BkWK1Wh61GjRqGYRhGs2bNjBEjRhR5/scff9zo2rWr8fnnnxvVqlUr9G8sNTXV8PT0ND788MOyPRFAKVkM47L/gQgAcFvYu3evff1y9erVlZWVpcDAQPn5+Sk2NlYuLi4VXSIAoBwQ9gEAAACTYs0+AAAAYFKEfQAAAMCkCPsAAACASRH2AQAAAJMi7AMAAAAmRdgHAAAATIqwDwAAAJgUYR8AAAAwKcI+AAAAYFKEfQAAAMCkCPsAAACASRH2AQAAAJMi7AMAAAAmRdgHAAAATIqwDwAAAJgUYR8AAAAwKcI+AAAAYFKEfQAAAMCkCPsAAACASRH2AQAAAJMi7AMAAAAmRdgHAAAATIqwDwAAAJgUYR8AAAAwKcI+AKDMCgoK1K5dO3l5eWnatGkVXQ4AoBiVK7oAAMCtx8nJSVFRUYqNjdXBgwcruhwAQDG4s49bTlBQUJF3EkNDQzV48GB7nypVqshms8lms8nHx0djxozR+fPn7f2///579ezZU7Vq1ZKbm5vq16+vJ554QhcuXCg0docOHWSxWPS///2vUJvFYtG2bdsK7W/QoIGWLVt2LZcK3NT8/PwqugTgio4cOaKQkBB5e3vLZrPJ29tb3bt317FjxxQXFyeLxaK8vDyHY44ePSqLxWL/I/bP/T7++GM5OTk5vL+MHDlS6enpki5+6jVr1iwFBgbKzc1NHh4eatWqldauXXtDrx24hLAP05oyZYoyMzOVmZmpL7/8UrGxsQoLC5MknTt3TsHBwWrZsqUOHz6sjIwMxcfHq1OnTjIMw2GcvXv3aufOnfL09NTSpUsr4lIAAFehe/fucnNz048//qjMzEx9++23GjBggCwWyzWN6+3tbX9/+fzzz/X5559rwoQJkqS5c+dq+fLlWr9+vTIyMpSamqp58+bpjjvuKIcrAsqOZTy4LTRo0EBdu3ZVUlKSJCk5OVknT57UuHHjZLPZJF28S/ncc88VOnbJkiW69957NXr0aL366qsKDw+X1Wq9ofUDpZGZmalffvlFjRo1Kpfx2rRpU2hf3bp1FR0dXS7jA1ejtPP81KlTSk5OVmRkpDw8PCRJtWvX1jPPPCPp4vtAefD391fv3r21ZcsWSVJ8fLy6d++u++67T5Lk6uqqDh06lMu5gKvBnX3cFg4dOqRPP/1U7du3lyQFBgaqbt26GjBggKKiorR///4ij8vMzFRERIRGjhypwYMHKycnR5GRkTeydKDUqlatqh07dmjSpEnau3dvif39/f1lsVhktVpls9lktVplsVhks9mUmpqq3bt3F9oI+qhopZ3nnp6eatq0qUaPHq0VK1YoKSlJBQUF5V7PgQMH9K9//UsPPvigpIvLSFeuXKm///3viouLU0ZGRrmfEygTA7jFdOjQwahatapRo0YNh83Z2dkYNGhQoT5Wq9WQZLRr187IyMiwj5OSkmJMnDjRuO+++4zKlSsbtWvXNmbNmmUUFBTY+yxdutSoVq2acfr0acMwDGPIkCFGs2bNHOqRZFit1kL1WCwW48MPP7wBzwjg6Pz588bixYuNiRMnGj/++GOx/b799lvDYrHY/1189tlnhqurq5Gfn1+q8wwcONBo3Lix0aBBA6Njx47GhQsXyqV+oDRKM89PnjxpvPrqq0arVq2MqlWrGnfccYfxwgsvGNnZ2caOHTsMSYVeu93c3AxJxk8//WQYhmHvl5ubaxiGYaxYscKwWCxGjRo1DHd3d6Nhw4bGc889Z/zxxx+GYRhGQUGBERUVZfTq1cvw8vIyKlWqZHTs2NHYu3fvjXligD9hGQ9uSS+++KJmzJjhsC80NNThi1aX90lLS9Pzzz+vLl26aNeuXZIuLtt5++23JV1cw79u3TqNGjVKdevWVWhoqCRp6dKl6tevn32t5ciRI9W+fXt99dVXeuihh+zn2rRpk4KDgx3qadCgQYnX8e677+r3338v28UDpVS5cmX17dtX/fr1U3h4eKH2xMREBQQEyM3NTZKUkJCgZs2aycmpdB/6rl69ulT9IiIiym3JBPBnV5rnnp6eCgsLU1hYmHJycvTpp5/qmWeekc1mU1BQkCTp5MmTqlz5/8eho0eP6s4777ziOb29vZWamlpkm8ViUUhIiEJCQiRJ+/bt05gxY9SjRw8dPnz4mr8vAJQVYR+3hZo1a+qZZ55Rr169dOrUKXl6ejq0W61WDR06VIsWLVJiYqJCQ0MVHx+vpKQkHTlyRHXq1HHov2TJEoewf7XGjRt3zWMAf2YYhv79739ry5YtWrhwoTp37lxkv8TERLVo0cL+OCEhQc2bNy/3eoYMGVLuYwKlneeXVK1aVX369FFwcLASExPtYf96a9y4sSZOnKjevXvrzJkz9u8PADcKa/ZxWzhz5owiIiLk5+cnT09PJScna8aMGdq/f7/y8vKUm5urdevW6ccff7Sv61+yZImaNm2qAwcO6LvvvrNv8+fP1/r163Xy5MkKvirAkWEY+te//qUxY8aoatWqWrRokbp06VLsncQ9e/YUCvuXPwZuRqWd52fOnNHLL7+spKQk5eTkKD8/X7GxsdqxY4f9df56eOuttxQTE6PTp09LklJSUuw/9EDQR0Ug7MO05syZY/8d5ICAAGVlZenTTz+VJLm5uSk5OVndunWTu7u7atWqpdmzZ2vx4sXq37+/0tLStHHjRr300kuqU6eOw/bss8/qjjvu0EcffVTBVwg4+uOPP1StWrUSQ74k5efnKykpyR7uz549q5SUFDVp0uRGlQtcldLO8ypVqujkyZN68skn5eXlJU9PT40fP14vvfSSXnjhhetWX40aNRQeHq67775bNptNDz/8sLy8vLR58+brdk7gSiyG8acfFQcAmN7evXvVtGlTpaenq3r16srKylJgYKD8/PwUGxsrFxeXii4RAFAOCPsAAACASbGMBwAAADApwj4AAABgUoR9AAAAwKQI+wAAAIBJEfYBAAAAkyLsAwAAACZF2AcAAABMirAPAAAAmBRhHwAAADApwj4AAABgUoR9AAAAwKQI+wAAAIBJEfYBAAAAkyLsAwAAACZF2AcAAABMirAPAAAAmBRhHwAAADApwj4AAABgUoR9AAAAwKQI+wAAAIBJEfYBAAAAkyLsAwAAACZF2AcAAABMirAPAAAAmBRhHwBQZgUFBWrXrp28vLw0bdq0ii4HAFCMyhVdAADg1uPk5KSoqCjFxsbq4MGDFV0OAKAY3NmHaQQFBalKlSqy2Wyy2Wzy8fHRmDFjdP78eUlSaGionJ2d7e2Xtjlz5tjHyMvL04IFC9SiRQtZrVZ5eHioUaNGGjdunEOgadCggapVqyabzSZ3d3e1atVK//znP2/4NQMVyc/Pr6JLAK4oKCioyE+eQkNDNXjwYEkXX8+XLVt2xWOPHj0qi8UiPz8/ZWVl2fvk5eXJYrEoLi7O4diVK1eqbdu2ql69umrUqKG7775bw4YN07fffluOVweUDmEfpjJlyhRlZmYqMzNTX375pWJjYxUWFmZvHzBggL390jZlyhRJUn5+vnr37q3FixcrLCxMx44d0+nTp/XZZ5+pQYMG2rJli8O5Fi1apMzMTKWlpemJJ55Q//799dNPP93Q6wUA3DjZ2dmaPXv2FfuMHj1aL7/8sp5//nkdOXJEf/zxh+Lj4/Xwww9zUwgVgmU8MK0GDRqoa9euSkpKKlX/NWvWKDY2VklJSQoMDLTv9/Pz06RJk4o9ztnZWWPHjtUrr7yipKQk3X333ddcO3A1MjIydOjQIT3wwAPlMl6bNm0K7atbt66io6PLZXzgamRkZOjgwYNq3rz5DT/33//+d02aNEkjRowo8pOtL7/8Uh988IG2b9+uRx991L6/du3aGjFixI0sFbDjzj5M69ChQ/r000/Vvn37UvWPiYlRq1atHIJ+aeTk5Ojdd9+Vs7OzmjVrdhWVAuXD1dVV3377rSZMmKA9e/aU2N/f318Wi0VWq1U2m01Wq1UWi0U2m02pqanavXt3oY2gj4pmtVr13Xffafz48UpISLih5w4ODlbnzp01efLkIttjYmLk4+PjEPSBikbYh6nMmzdP7u7ustls8vf3V61atfT888/b29etWyd3d3eHLTY2VpKUlpYmHx8fh/EGDRpkH69z584ObePGjZO7u7v8/Pz0n//8R9HR0brrrruu/0UCxahcubKGDRumuXPn6vvvvy8x9G/YsEEWi0XHjx9XZmamNm3aJFdXV2VkZMjX17fE84WEhGju3LmKjIxUcHCwcnNzy/NygCJVqlRJw4YN07x585SUlFRi6L/0vnD5FhUVddXnnzdvnjZt2qT4+PhCbUW9j/ztb3+Tu7u73NzcynwzCSgPLOOBqbz44ouaMWOGpIsvus8//7y6dOmiXbt2SZKeeuopffLJJ0UeW7NmTf38888O+yIjIyVJ06ZNK/TC/u6775b6Y9lDhw5p+fLlZboW4FpVrVpVAwcOVP/+/RUeHl6oPTExUQEBAXJzc5MkJSQkqFmzZnJyKt19oNWrV5eqX0REhJKTk0tfOFAG1apVU0hISLHz/PL3hUtCQ0OVl5cn6eJSzKL+UM3NzZWzs3Oh/f7+/ho/frzGjx+vr776yqGtZs2aSk1NddgXHh6u8PBwLVu2rFAdwI1A2Idp1axZU88884x69eqlU6dOldi/e/fuGj58uPbv31/ud1/uuusuzZw5s1zHBIqTn5+vdevWadeuXVq+fLnatWtXZL/ExES1aNHC/jghIeG6rIMeMmRIuY8J5Ofna/369fryyy/10UcflXrJ5p81bNiw0I8rFBQU6PDhw8V+Wjtt2jStXLlSK1ascNjfvXt3hYeHa8eOHSzlwU2DZTwwrTNnzigiIkJ+fn7y9PQssX9ISIiCgoLUq1cvxcTEKCMjQ5J07Ngx7du373qXC1yzgoICrV69WhMmTJCvr68WLlxYbNCXpD179hQK+5c/Bm5GBQUFWrNmjSZMmCBvb28tXLjwqoO+JA0bNkzLly/Xtm3blJeXp7Nnz2rq1KkyDEPdu3cv8hg3NzfNmjWr0M96tm3bVsOGDdPTTz+tqKgonT59WpJ0+vRpJSYmXnWNwLUg7MNU5syZY//9/ICAAGVlZenTTz+1t69du7bQ7+yPGTNG0sV1oJs3b9bo0aP16quvqk6dOvLw8FBwcLB8fHz04YcfVtRlAaVy9uxZ1atXr8SQL128K5qUlGQP92fPnlVKSoqaNGlyI0oFrtrZs2fl5+d3zSH/kgEDBuidd97R5MmT5eXlpbvvvls//vijtm3bJg8Pj2KPGzp0qOrXr19o/7JlyzRz5kwtWrRI9evXV40aNfTQQw8pKyuLL7ijQlgMwzAquggAwI21d+9eNW3aVOnp6apevbqysrIUGBgoPz8/xcbGysXFpaJLBACUA8I+AAAAYFIs4wEAAABMirAPAAAAmBRhHwAAADApwj4AAABgUoR9AAAAwKQI+wAAAIBJEfYBAAAAkyLsAwAAACZF2AcAAABMirAPAAAAmBRhHwAAADApwj4AAABgUoR9AAAAwKQI+wAAAIBJEfYBAAAAkyLsAwAAACZF2AcAAABMirAPAAAAmBRhHwAAADApwj4AAABgUoR9AAAAwKQI+wAAAIBJEfYBAAAAkyLsAwAAACZF2AcAlFlBQYHatWsnLy8vTZs2raLLAQAUo3JFFwAAuPU4OTkpKipKsbGxOnjwYEWXAwAoBnf2cUMEBQXpb3/7mx544AGNGTPGoS03N1cPPvigRo0aJUk6fvy4Ro8eLV9fX7m4uMjX11fPPvusfv/9d4fj4uLi9Oijj8rT01Nubm666667NGLECEnSnDlzVK9ePZ05c8bhmAULFsjHx0cnT56UJGVlZWn69Olq0qSJXF1dVbNmTd1333165ZVXdPz4cftxFotFLi4ustls8vDwUNu2bRUXF+cw9smTJzVhwgT5+/vLarXK29tbwcHB+sc//iFJOnr0qCwWS5HByGKxaNu2bWXqB1Q0Pz+/ii4BuKKgoCBZLBa9//77DvvPnj0rNzc3h9fa3NxczZw5U40aNZKrq6s8PDz0+OOP69tvv7Uf179/fz322GMqKCiw70tOTpbNZtPmzZslSdOnT1fbtm0dznfw4EENGjRItWvXlouLixo2bKgpU6YoMzPT3ufSa7+fn5+ysrLs+/Py8mSxWOzvOVd6j7h0zVWqVJHNZnPY1q5dK+nip3KzZs1SYGCg3Nzc5OHhoVatWtnbJen7779Xz549VatWLbm5ual+/fp64okndOHChVI/97h5EPZxw1SqVElr1qzRypUr7S+KkvTqq6/q3Llzeuedd3T8+HE9+OCD+uWXXxQbG6vMzExt375dKSkpat26tT3wHz16VN26ddPTTz+t3377Tenp6dqyZYtatmwpSZo8ebLuuecejRw50n6e77//Xq+88oo++eQTeXl56dy5c2rXrp02b96sJUuWKC0tTWlpadq4caOcnZ0VHx/vUP+///1vZWZm6tdff1WrVq30+OOP6+zZs5Iu/oHSsmVL7d27V+vXr1d6erqOHj2qF198UWvWrLneTy0AoBiNGzcuFPYjIiJUv359++P8/Hz16tVLK1eu1Hvvvaf09HTt27dPjRo10sMPP6zPP/9ckvThhx/q4MGDmj17tiQpJydHAwcO1LBhw9SzZ88iz7937161bNlSzs7O+vrrr5WZmamNGzfq888/V4cOHRyCvSRlZ2fbx79al/6QuHwbMGCAJGnu3Llavny51q9fr4yMDKWmpmrevHm64447JEnnzp1TcHCwWrZsqcOHDysjI0Px8fHq1KmTDMO4prpQQQzgBujQoYMxdepUwzAMY8WKFYaXl5fx22+/Gdu3bzesVqvxww8/GIZhGCNHjjQaNmxo5OTkOByfnZ1tNGzY0Bg9erRhGIaxYcMGo3r16lc85/Hjx43atWsbH3zwgZGVlWU0btzYmDZtmr19xowZhoeHh3Hy5MkS65dkbN261f74hx9+MCQZ33zzjb1uf39/Izs7u9gxjhw5YkgyfvrppyuOX9p+wJ+dOXPGiI+PL7fxWrduXWjr06ePQ58VK1bY/20DN0J6enqp53mHDh2Ml156yfD29jZ2795t39+kSRPj3Xfftb/WRkZGGpUrVzb+97//FRrj6aefNgIDA+2PP//8c6Nq1arG7t27jTFjxhj33Xefw2v/66+/bjzyyCP2x506dTLatm1baNy0tDSjRo0aRnh4uGEY//+1f+nSpYaLi4uRkpJiGIZh5ObmGpKMHTt2OPQr6j3i0jVf6d9kz549jbFjxxbbnpCQYEgyTp06VWwf3Fq4s48bLjQ0VF26dFFISIiGDBmit956S02aNJEkbd68WSEhIapSpYrDMVWrVtXAgQPtnwi0bNlS+fn5euqpp7RhwwYdOXKk0Hlq166tVatWadKkSXr66afl4eGh6dOn29tjYmLUrVs3eXp6lqn+c+fO6YMPPlC1atXUoEED+1hPPfWUqlatWqaxgPJUvXp1paSkaOzYsfriiy9K7O/v7y+LxSKr1SqbzSar1SqLxSKbzabU1FTt3r270BYdHX0DrgQonpubm3755ReNHTtWO3fuLLF/5cqVNWLECL333nuSpPj4eGVkZKhHjx72Pps3b1br1q11zz33FDo+NDRU+/fvty+bad++vaZMmaJevXpp+fLlWr16dbGv/efPn9f27dv1zDPPFGrz8vJSjx49HD7plqTg4GB17txZkydPLvHarkZQUJBWrlypv//974qLi1NGRoZDe2BgoOrWrasBAwYoKipK+/fvvy514MYh7KNCLF26VIcOHdIDDzyg0aNH2/enpaXJx8enyGN8fX114sQJSVL9+vX19ddfy8PDQ9OmTZO/v78aNGig5cuXOxzTuXNnDR8+XFu2bFFkZKQqVap0xXO1a9dO7u7uslqtDkuAJKlPnz6qUaOGbDabVq9erejoaHl5eUmSTpw4IV9f31Jde/PmzeXu7u6wXUs/4BInJyeFhIRowYIFSk1NLTH0b9iwQRaLRcePH1dmZqY2bdokV1dXZWRklGo+h4SEaO7cuYqMjFRwcLByc3PL83KAIjk5OWngwIFasGCBfvvtt1KF/pEjR2rjxo1KT0/X0qVLNXLkSDk5/f8IVNJ7jyT7+490MZCnpaXp4YcfVuPGjYs97+nTp5Wfn1+q97XLzZs3T5s2bSq0nLS05s2bV+j946effpIkTZo0Se+9956++eYbPfnkk/Lw8FBwcLD27dsnSbLZbPq///s/NW3aVLNnz1aTJk1Up04dhYeHs4znFsWv8aBCXPpC7f333++wv2bNmvr111+LPCY1NVW1atWyP27cuLH9Tk16erref/99DR8+XA0bNlRQUJC9X7NmzeTh4aF69eoVOldqaqrDvkvBaPDgwYWCy6ZNmxQcHKyUlBT169dPX331lbp27SpJqlWrVqGxipOYmCh/f3+HfRaL5ar7XWIYhubNm6f09PRS1QHzc3V11dChQzVgwADNnDmzUHtiYqICAgLk5uYmSUpISFCzZs0cQtCVrF69ulT9IiIilJycXPrCgTJwdXXV8OHD1b9/f4WHhxfZx9fXV48++qjmzZunf/7zn5o3b55ycnLs7TVr1lRKSkqRx156bb/0/vPHH3/oL3/5i8aNG6eVK1dq1apV+stf/lLksR4eHqpUqVKp39cu8ff31/jx4zV+/Hh99dVXxV98MV588UXNmDGjyDaLxaKQkBCFhIRIkvbt26cxY8aoR48eOnz4sP1Lwm+//baki59mr1u3TqNGjVLdunUVGhpa5npQsQj7uKn06NFDa9eu1WuvveawlOfChQtau3atw8eul3N3d9dLL72kOXPmKDEx0SHsF6d79+5asGCBTp06VaalPPXq1dOqVavUrFkz9enTRw888IB69Oih9evX6/XXXy+0BOlGsVgs1+1jX9xacnNztWrVKv3www9au3atWrRoUWS/xMREh7aEhAQ1b9683OsZMmRIuY8J5ObmKiIiQklJSVqzZk2x8/yS5557Tt27d1e/fv1Ut25dHT161N7Wo0cPDR06VAcOHFBAQIDDcatWrVJAQID95suoUaN01113af78+XrooYc0atQotW3bVg0bNix0ThcXFz366KOKiIiw/1rcJadOndJ//vMfTZkypch6p02bppUrV2rFihWleTquWuPGjTVx4kT17t1bZ86ckYeHh0O71WrV0KFDtWjRIiUmJhL2b0Es48FN5Y033tD58+fVr18/HThwQAUFBfrpp5/Ur18/XbhwQW+88Yaki3fgFyxYoKNHj6qgoEDnz5/XokWLlJ6erkceeaRU55owYYJ8fX3VtWtX7dy5U1lZWTIMQ0eOHCnyOwCXa9SokUJCQuwv0mFhYbpw4YJ69+6t77//Xrm5ucrNzdW2bds0cODAa3tSgFLKy8vTRx99pMmTJ6tZs2ZasGDBFQPQnj17CoX9kgITUNHy8/O1fPlyTZ48Wffff3+J8/ySLl26aOvWrZo/f36htoEDB6pDhw7q3bu3vvjiC+Xm5urEiROaOnWqNmzYoKVLl0qSli9frtjYWEVERNiXEz3xxBMaNGiQ8vLyijzv22+/re+++07Dhw/XL7/8ovz8fH333Xfq2bOn6tevr3HjxhV5nJubm2bNmlXsf1p34cIFZWdn27fLP6m4krfeeksxMTE6ffq0JCklJUVLlizRvffeKw8PDyUnJ2vGjBnav3+/8vLylJubq3Xr1unHH39U+/btS3UO3FwI+7ipeHt76+uvv1adOnUUFBQkV1dXdejQQXXr1rXvly5+NBofH6927dqpevXq8vX11Zo1a7Rx40a1bt26VOey2WyKj49Xt27d9Oyzz8rT01M1a9ZUnz591KFDB82aNeuKx7/22muKi4vTZ599pjp16uibb77RPffco759+6pGjRqqV6+eZs+eTdjHDZOVlaXmzZuXKvzk5+crKSnJ3u/s2bNKSUmxf1keuFmdO3euVH/M/pnFYlHHjh2L/D5KpUqVtHnzZg0aNEgjRoxQ9erVFRgYqKSkJH3xxRd67LHHdODAAY0bN07Lli2Tt7e3/dhFixbp5MmTDj8AcbmmTZvq66+/tv/7tNls6tu3rx555BHt3LlTVqu12JqHDh3q8BOhl7v33nvl4uJi3+666y5725w5cwr9zv6cOXMkSTVq1FB4eLjuvvtu2Ww2Pfzww/Ly8rJ/UdjNzU3Jycnq1q2b3N3dVatWLc2ePVuLFy9W//79S3yecfOxGHzbAgBuO3v37lXTpk2Vnp6u6tWrKysrS4GBgfLz81NsbKxcXFwqukQAQDkg7AMAAAAmxTIeAAAAwKQI+wAAAIBJEfYBAAAAkyLsAwAAACZF2AcAAABMirAPAAAAmBRhHwAAADApwj4AAABgUoR9AAAAwKQI+wAAAIBJEfYBAAAAkyLsAwAAACZF2AcAAABMirAPAAAAmBRhHwAAADApwj4AAABgUoR9AAAAwKQI+wAAAIBJEfYBAAAAkyLsAwAAACZF2AcAAABMirAPAAAAmBRhHwAAADApwj4AAABgUoR9AECZFRQUqF27dvLy8tK0adMquhwAQDEqV3QBAIBbj5OTk6KiohQbG6uDBw9WdDkAgGJwZx+3lSNHjigkJETe3t6y2Wzy9vZW9+7ddezYMUlSXl6eFixYoBYtWshqtcrDw0ONGjXSuHHjCDTAn/j5+VV0CcAVBQUF2T95atCggSpVqqTvvvvOoU/btm01ffr0G18ccIMQ9nFb6d69u9zc3PTjjz8qMzNT3377rQYMGCCLxaL8/Hz17t1bixcvVlhYmI4dO6bTp0/rs88+U4MGDbRly5aKLh8AcA08PDw0YcKEii4DuKFYxoPbxqlTp5ScnKzIyEh5eHhIkmrXrq1nnnlGkhQZGanY2FglJSUpMDDQfpyfn58mTZpUITUDZZGenq6vv/5anTp1ksViuebx2rRpU2hf3bp1FR0dfc1jA1frWub5Cy+8oNmzZ2vDhg3q37//daoQuLlwZx+3DU9PTzVt2lSjR4/WihUrlJSUpIKCAnt7TEyMWrVq5RD0gVtJjRo1lJ2drTFjxmjLli0yDOOK/f39/WWxWGS1WmWz2WS1WmWxWGSz2ZSamqrdu3cX2gj6qGiXz/P//ve/Jc7zy3l5een111/X5MmTlZ2dfR2rBG4ehH3cVnbs2KFu3bpp6dKlevDBB+Xl5aUXX3xROTk5SktLk4+Pj0P/QYMGyd3dXTabTZ07d66gqoHSsVgs6t27txYtWqScnJwSQ/+GDRtksVh0/PhxZWZmatOmTXJ1dVVGRoZ8fX1LPF9ISIjmzp2ryMhIBQcHKzc3t7wvCSjk8nl+4cKFMof+v/71r6pWrZrmzZt3nSsFbg4s48FtxdPTU2FhYQoLC1NOTo4+/fRTPfPMM7LZbKpZs6Z+/vlnh/6RkZGSpGnTpik+Pr7YcT/88EMdPXr0epYOlJnVatXYsWPVv39/zZo1q1B7YmKiAgIC5ObmJklKSEhQs2bN5ORUuvtAq1evLlW/iIgIJScnl75woAysVqvGjRunfv36KTw8vMT+zs7Oevvtt/Xkk09q2LBhN6BCoGIR9nHbqlq1qvr06aPg4GAlJibqqaee0vDhw7V///4yL+UZOXLkdaoSKLvs7Gx99NFHOnz4sKKjo3XvvfcW2S8xMVEtWrSwP05ISFDz5s3LvZ4hQ4aU+5hAdna2li9frkOHDl1xnhelW7du6tChg1566aXrWCFwc2AZD24bZ86c0csvv6ykpCTl5OQoPz9fsbGx2rFjh9q3b6+QkBAFBQWpV69eiomJUUZGhiTp2LFj2rdvXwVXD5QsNzdXixcv1tSpUxUUFKS33nrrigFoz549hcL+5Y+Bm1Fubq6WLFmiqVOnqkOHDiXO8+K8/fbbWrduHZ86wfS4s4/bRpUqVXTy5Ek9+eST+u2331SpUiX5+vrqpZde0gsvvCCLxaLNmzfr3Xff1auvvqrk5GRVq1ZNdevW1WOPPabZs2dX9CUAV5Sdna3HHntMf/3rX0vsm5+fr6SkJL355puSpLNnzyolJUVNmjS53mUC1yQnJ0ePPvqonn/++WsaJzAwUH/96181f/78cqoMuDlZjLJ8jR0AYAp79+5V06ZNlZ6erurVqysrK0uBgYHy8/NTbGysXFxcKrpEAEA5IOwDAAAAJsWafQAAAMCkCPsAAACASRH2AQAAAJMi7AMAAAAmRdgHAAAATIqwDwAAAJgUYR8AAAAwKcI+AAAAYFKEfQAAAMCkCPsAAACASRH2AQAAAJMi7AMAAAAmRdgHAAAATIqwDwAAAJgUYR8AAAAwKcI+AAAAYFKEfQAAAMCkCPsAAACASRH2AQAAAJMi7AMAAAAmRdgHAAAATIqwDwAAAJgUYR8AAAAwKcI+AMDOYrHo448/rugygOuKeY7bCWEfAGA3fPhwBQQEVHQZwHXFPMftxGIYhlHRRQAAAAAof9zZBwAAAEyKsA8UgfWcuF0x93E7YJ7jdkLYB4rAek7crpj7uB0wz3E7Yc0+AAAAYFLc2QcAAABMirAPFIH1nLhdjRgxQrt27aroMoDrinmO2wlhHygC6zlxu/roo4904MCBii4DuK6Y57idsGYfAAAAMCnu7AMAAAAmRdgHisB6TgAAYAaEfaAIrOcEAABmULmiCwBuRnyVBQAAmAF39gEAAACTIuwDAAAAJkXYBwAAAEyKsA8AAACYFGEfAAAAMCnCPgAAAGBShH0AAADApAj7AAAAgEkR9gEAAACTIuwDAAAAJvX/AGtTqPHzo1PDAAAAAElFTkSuQmCC;clipPath=inset(0.5% 10% 0.5% 17.67%);" vertex="1" parent="1">
          <mxGeometry x="-860" y="60" width="763" height="351.61290322580646" as="geometry" />
        </mxCell>
        <mxCell id="skae8Cms1SVxLaRQlldV-5" value="✅" style="text;whiteSpace=wrap;fontSize=20;align=center;verticalAlign=middle;" vertex="1" parent="1">
          <mxGeometry x="-130" y="215.81" width="50" height="40" as="geometry" />
        </mxCell>
        <mxCell id="skae8Cms1SVxLaRQlldV-6" value="✅" style="text;whiteSpace=wrap;fontSize=20;align=center;verticalAlign=middle;" vertex="1" parent="1">
          <mxGeometry x="-130" y="163" width="50" height="40" as="geometry" />
        </mxCell>
        <mxCell id="skae8Cms1SVxLaRQlldV-7" value="✅" style="text;whiteSpace=wrap;fontSize=20;align=center;verticalAlign=middle;" vertex="1" parent="1">
          <mxGeometry x="-130" y="320" width="50" height="40" as="geometry" />
        </mxCell>
        <mxCell id="skae8Cms1SVxLaRQlldV-8" value="❌" style="text;whiteSpace=wrap;fontSize=20;align=center;verticalAlign=middle;" vertex="1" parent="1">
          <mxGeometry x="-130" y="60" width="50" height="40" as="geometry" />
        </mxCell>
        <mxCell id="skae8Cms1SVxLaRQlldV-9" value="❌" style="text;whiteSpace=wrap;fontSize=20;align=center;verticalAlign=middle;" vertex="1" parent="1">
          <mxGeometry x="-130" y="113" width="50" height="40" as="geometry" />
        </mxCell>
        <mxCell id="skae8Cms1SVxLaRQlldV-10" value="❌" style="text;whiteSpace=wrap;fontSize=20;align=center;verticalAlign=middle;" vertex="1" parent="1">
          <mxGeometry x="-130" y="266" width="50" height="40" as="geometry" />
        </mxCell>
      </root>
    </mxGraphModel>
  </diagram>
</mxfile>
